<mxfile modified="2022-09-07T08:43:05.738Z" host="app.diagrams.net" agent="5.0 (Macintosh; Intel Mac OS X 10_15_7) AppleWebKit/605.1.15 (KHTML, like Gecko) Version/15.6.1 Safari/605.1.15" etag="M6zFkK7bWWaTvhrY9VaM" version="20.2.8" type="github">
  <diagram id="WI9T0HZ2pTsCkuznbFz-" name="Page-1">
    <mxGraphModel dx="2610" dy="884" grid="1" gridSize="10" guides="1" tooltips="1" connect="1" arrows="1" fold="1" page="1" pageScale="1" pageWidth="827" pageHeight="1169" math="0" shadow="0">
      <root>
        <mxCell id="0" />
        <mxCell id="1" parent="0" />
        <mxCell id="rI1JX8pW7Fap40Gf1UJg-1" value="" style="rounded=0;whiteSpace=wrap;html=1;fillColor=#EAEDED;fontSize=22;fontColor=#FFFFFF;strokeColor=none;labelBackgroundColor=none;" parent="1" vertex="1">
          <mxGeometry x="1073.5" y="156.5" width="539" height="855" as="geometry" />
        </mxCell>
        <mxCell id="rI1JX8pW7Fap40Gf1UJg-2" value="Сервер Exchange обслуживающий домен govrb.ru&amp;nbsp;" style="text;html=1;align=left;verticalAlign=top;spacingTop=-4;fontSize=14;labelBackgroundColor=none;whiteSpace=wrap;" parent="1" vertex="1">
          <mxGeometry x="1143" y="167.5" width="449" height="118" as="geometry" />
        </mxCell>
        <mxCell id="rI1JX8pW7Fap40Gf1UJg-3" value="Домен govrb.ru, Таблица &quot;mail users&quot; содержащая полный список почтовых ящиков для домена/" style="text;html=1;align=left;verticalAlign=top;spacingTop=-4;fontSize=14;labelBackgroundColor=none;whiteSpace=wrap;" parent="1" vertex="1">
          <mxGeometry x="1142" y="290.5" width="450" height="115" as="geometry" />
        </mxCell>
        <mxCell id="rI1JX8pW7Fap40Gf1UJg-4" value="&lt;span&gt;коннектор Exchange который пересылает письмо на сервер CommunigatePro если почтовый ящик не найден на сервер Exchange&lt;/span&gt;" style="text;html=1;align=left;verticalAlign=top;spacingTop=-4;fontSize=14;labelBackgroundColor=none;whiteSpace=wrap;" parent="1" vertex="1">
          <mxGeometry x="1142" y="408.5" width="450" height="117" as="geometry" />
        </mxCell>
        <mxCell id="rI1JX8pW7Fap40Gf1UJg-5" value="коннектор CommunigatePro который пересылает письмо на адреса домена govrb.ru ящики которых обслуживает exchange. Коннектор для внутренней переписки/ Исходящие письма во внешние домены идут через стандартный mta" style="text;html=1;align=left;verticalAlign=top;spacingTop=-4;fontSize=14;labelBackgroundColor=none;whiteSpace=wrap;" parent="1" vertex="1">
          <mxGeometry x="1142" y="524.5" width="450" height="121" as="geometry" />
        </mxCell>
        <mxCell id="rI1JX8pW7Fap40Gf1UJg-6" value="&lt;span&gt;Сервер Communigate pro обслуживающий домен govrb.ru&lt;/span&gt;" style="text;html=1;align=left;verticalAlign=top;spacingTop=-4;fontSize=14;labelBackgroundColor=none;whiteSpace=wrap;" parent="1" vertex="1">
          <mxGeometry x="1143" y="641.5" width="449" height="114" as="geometry" />
        </mxCell>
        <mxCell id="rI1JX8pW7Fap40Gf1UJg-9" value="1" style="ellipse;whiteSpace=wrap;html=1;aspect=fixed;fillColor=#4D9900;strokeColor=none;labelBackgroundColor=none;" parent="1" vertex="1">
          <mxGeometry x="1093.5" y="174" width="23" height="23" as="geometry" />
        </mxCell>
        <mxCell id="rI1JX8pW7Fap40Gf1UJg-10" value="2" style="ellipse;whiteSpace=wrap;html=1;aspect=fixed;fillColor=#4D9900;strokeColor=none;labelBackgroundColor=none;" parent="1" vertex="1">
          <mxGeometry x="1093.5" y="295" width="23" height="23" as="geometry" />
        </mxCell>
        <mxCell id="rI1JX8pW7Fap40Gf1UJg-11" value="3" style="ellipse;whiteSpace=wrap;html=1;aspect=fixed;fillColor=#4D9900;strokeColor=none;labelBackgroundColor=none;" parent="1" vertex="1">
          <mxGeometry x="1093.5" y="416" width="23" height="23" as="geometry" />
        </mxCell>
        <mxCell id="rI1JX8pW7Fap40Gf1UJg-12" value="4" style="ellipse;whiteSpace=wrap;html=1;aspect=fixed;fillColor=#4D9900;strokeColor=none;labelBackgroundColor=none;" parent="1" vertex="1">
          <mxGeometry x="1093.4999999999995" y="533" width="23" height="23" as="geometry" />
        </mxCell>
        <mxCell id="rI1JX8pW7Fap40Gf1UJg-13" value="5" style="ellipse;whiteSpace=wrap;html=1;aspect=fixed;fillColor=#4D9900;strokeColor=none;labelBackgroundColor=none;" parent="1" vertex="1">
          <mxGeometry x="1093.4999999999995" y="645.5" width="23" height="23" as="geometry" />
        </mxCell>
        <mxCell id="dzwL4iLsprpZWcppXyu_-11" style="edgeStyle=orthogonalEdgeStyle;rounded=0;orthogonalLoop=1;jettySize=auto;html=1;" edge="1" parent="1" source="dzwL4iLsprpZWcppXyu_-2" target="dzwL4iLsprpZWcppXyu_-10">
          <mxGeometry relative="1" as="geometry" />
        </mxCell>
        <mxCell id="dzwL4iLsprpZWcppXyu_-37" style="edgeStyle=orthogonalEdgeStyle;rounded=0;orthogonalLoop=1;jettySize=auto;html=1;entryX=-0.02;entryY=0.694;entryDx=0;entryDy=0;entryPerimeter=0;" edge="1" parent="1" source="dzwL4iLsprpZWcppXyu_-5" target="dzwL4iLsprpZWcppXyu_-2">
          <mxGeometry relative="1" as="geometry" />
        </mxCell>
        <mxCell id="dzwL4iLsprpZWcppXyu_-33" style="edgeStyle=orthogonalEdgeStyle;rounded=0;orthogonalLoop=1;jettySize=auto;html=1;entryX=0;entryY=0.5;entryDx=0;entryDy=0;" edge="1" parent="1" source="dzwL4iLsprpZWcppXyu_-10" target="dzwL4iLsprpZWcppXyu_-24">
          <mxGeometry relative="1" as="geometry" />
        </mxCell>
        <mxCell id="dzwL4iLsprpZWcppXyu_-41" style="edgeStyle=orthogonalEdgeStyle;rounded=0;orthogonalLoop=1;jettySize=auto;html=1;" edge="1" parent="1" source="dzwL4iLsprpZWcppXyu_-10" target="dzwL4iLsprpZWcppXyu_-13">
          <mxGeometry relative="1" as="geometry" />
        </mxCell>
        <mxCell id="dzwL4iLsprpZWcppXyu_-39" style="edgeStyle=orthogonalEdgeStyle;rounded=0;orthogonalLoop=1;jettySize=auto;html=1;" edge="1" parent="1" source="dzwL4iLsprpZWcppXyu_-13" target="dzwL4iLsprpZWcppXyu_-5">
          <mxGeometry relative="1" as="geometry" />
        </mxCell>
        <mxCell id="dzwL4iLsprpZWcppXyu_-32" style="edgeStyle=orthogonalEdgeStyle;rounded=0;orthogonalLoop=1;jettySize=auto;html=1;entryX=1;entryY=0.25;entryDx=0;entryDy=0;" edge="1" parent="1" source="dzwL4iLsprpZWcppXyu_-18" target="dzwL4iLsprpZWcppXyu_-22">
          <mxGeometry relative="1" as="geometry" />
        </mxCell>
        <mxCell id="dzwL4iLsprpZWcppXyu_-22" value="outbound mail&lt;br&gt;from govrb.ru" style="shape=image;html=1;verticalAlign=top;verticalLabelPosition=bottom;labelBackgroundColor=#ffffff;imageAspect=0;aspect=fixed;image=https://cdn4.iconfinder.com/data/icons/essentials-73/24/014_-_Send_Mail-128.png" vertex="1" parent="1">
          <mxGeometry x="-280" y="633" width="48" height="48" as="geometry" />
        </mxCell>
        <mxCell id="dzwL4iLsprpZWcppXyu_-26" style="edgeStyle=orthogonalEdgeStyle;rounded=0;orthogonalLoop=1;jettySize=auto;html=1;entryX=0.5;entryY=0;entryDx=0;entryDy=0;entryPerimeter=0;" edge="1" parent="1" source="dzwL4iLsprpZWcppXyu_-23" target="dzwL4iLsprpZWcppXyu_-18">
          <mxGeometry relative="1" as="geometry" />
        </mxCell>
        <mxCell id="dzwL4iLsprpZWcppXyu_-23" value="Inbound mail&lt;br&gt;for govrb.ru" style="shape=image;html=1;verticalAlign=top;verticalLabelPosition=bottom;labelBackgroundColor=#ffffff;imageAspect=0;aspect=fixed;image=https://cdn4.iconfinder.com/data/icons/essentials-73/24/015_-_Receive_Mail-128.png" vertex="1" parent="1">
          <mxGeometry x="-90" y="620" width="48" height="48" as="geometry" />
        </mxCell>
        <mxCell id="dzwL4iLsprpZWcppXyu_-24" value="outbound mail&lt;br&gt;from govrb.ru" style="shape=image;html=1;verticalAlign=top;verticalLabelPosition=bottom;labelBackgroundColor=#ffffff;imageAspect=0;aspect=fixed;image=https://cdn4.iconfinder.com/data/icons/essentials-73/24/014_-_Send_Mail-128.png" vertex="1" parent="1">
          <mxGeometry x="760" y="835.5" width="48" height="48" as="geometry" />
        </mxCell>
        <mxCell id="dzwL4iLsprpZWcppXyu_-34" value="" style="shape=flexArrow;endArrow=classic;startArrow=classic;html=1;rounded=0;exitX=0.88;exitY=0.5;exitDx=0;exitDy=0;exitPerimeter=0;" edge="1" parent="1" source="dzwL4iLsprpZWcppXyu_-18" target="dzwL4iLsprpZWcppXyu_-5">
          <mxGeometry width="100" height="100" relative="1" as="geometry">
            <mxPoint x="370" y="850" as="sourcePoint" />
            <mxPoint x="470" y="750" as="targetPoint" />
          </mxGeometry>
        </mxCell>
        <mxCell id="dzwL4iLsprpZWcppXyu_-51" value="" style="group" vertex="1" connectable="0" parent="1">
          <mxGeometry x="370" y="622.5" width="50" height="59.5" as="geometry" />
        </mxCell>
        <mxCell id="dzwL4iLsprpZWcppXyu_-2" value="Exchange connector" style="sketch=0;pointerEvents=1;shadow=0;dashed=0;html=1;strokeColor=none;labelPosition=center;verticalLabelPosition=bottom;verticalAlign=top;align=center;fillColor=#505050;shape=mxgraph.mscae.intune.exchange_connector" vertex="1" parent="dzwL4iLsprpZWcppXyu_-51">
          <mxGeometry y="10.5" width="50" height="49" as="geometry" />
        </mxCell>
        <mxCell id="dzwL4iLsprpZWcppXyu_-45" value="3" style="ellipse;whiteSpace=wrap;html=1;aspect=fixed;fillColor=#4D9900;strokeColor=none;labelBackgroundColor=none;" vertex="1" parent="dzwL4iLsprpZWcppXyu_-51">
          <mxGeometry width="23" height="23" as="geometry" />
        </mxCell>
        <mxCell id="dzwL4iLsprpZWcppXyu_-52" value="" style="group" vertex="1" connectable="0" parent="1">
          <mxGeometry x="380" y="898.5" width="78" height="42.5" as="geometry" />
        </mxCell>
        <mxCell id="dzwL4iLsprpZWcppXyu_-13" value="Communigate Connector" style="sketch=0;outlineConnect=0;fontColor=#232F3E;gradientColor=none;fillColor=#3F8624;strokeColor=none;dashed=0;verticalLabelPosition=bottom;verticalAlign=top;align=center;html=1;fontSize=12;fontStyle=0;aspect=fixed;pointerEvents=1;shape=mxgraph.aws4.connector;" vertex="1" parent="dzwL4iLsprpZWcppXyu_-52">
          <mxGeometry y="13.5" width="78" height="29" as="geometry" />
        </mxCell>
        <mxCell id="dzwL4iLsprpZWcppXyu_-47" value="4" style="ellipse;whiteSpace=wrap;html=1;aspect=fixed;fillColor=#4D9900;strokeColor=none;labelBackgroundColor=none;" vertex="1" parent="dzwL4iLsprpZWcppXyu_-52">
          <mxGeometry x="3.4999999999995453" width="23" height="23" as="geometry" />
        </mxCell>
        <mxCell id="dzwL4iLsprpZWcppXyu_-53" value="" style="group" vertex="1" connectable="0" parent="1">
          <mxGeometry x="140" y="817" width="67" height="72" as="geometry" />
        </mxCell>
        <mxCell id="dzwL4iLsprpZWcppXyu_-5" value="Mail domain &lt;br&gt;govrb.ru&amp;nbsp;" style="sketch=0;pointerEvents=1;shadow=0;dashed=0;html=1;strokeColor=none;fillColor=#505050;labelPosition=center;verticalLabelPosition=bottom;verticalAlign=top;outlineConnect=0;align=center;shape=mxgraph.office.servers.exchange_client_access_server;" vertex="1" parent="dzwL4iLsprpZWcppXyu_-53">
          <mxGeometry x="10" y="13" width="57" height="59" as="geometry" />
        </mxCell>
        <mxCell id="dzwL4iLsprpZWcppXyu_-44" value="2" style="ellipse;whiteSpace=wrap;html=1;aspect=fixed;fillColor=#4D9900;strokeColor=none;labelBackgroundColor=none;" vertex="1" parent="dzwL4iLsprpZWcppXyu_-53">
          <mxGeometry width="23" height="23" as="geometry" />
        </mxCell>
        <mxCell id="dzwL4iLsprpZWcppXyu_-54" value="" style="group" vertex="1" connectable="0" parent="1">
          <mxGeometry x="-170" y="805" width="115" height="107" as="geometry" />
        </mxCell>
        <mxCell id="dzwL4iLsprpZWcppXyu_-18" value="Exchange Server&lt;br&gt;" style="fontColor=#0066CC;verticalAlign=top;verticalLabelPosition=bottom;labelPosition=center;align=center;html=1;outlineConnect=0;fillColor=#CCCCCC;strokeColor=#6881B3;gradientColor=none;gradientDirection=north;strokeWidth=2;shape=mxgraph.networks.mail_server;" vertex="1" parent="dzwL4iLsprpZWcppXyu_-54">
          <mxGeometry x="10" y="2" width="105" height="105" as="geometry" />
        </mxCell>
        <mxCell id="dzwL4iLsprpZWcppXyu_-42" value="1" style="ellipse;whiteSpace=wrap;html=1;aspect=fixed;fillColor=#4D9900;strokeColor=none;labelBackgroundColor=none;" vertex="1" parent="dzwL4iLsprpZWcppXyu_-54">
          <mxGeometry width="23" height="23" as="geometry" />
        </mxCell>
        <mxCell id="dzwL4iLsprpZWcppXyu_-55" value="" style="group" vertex="1" connectable="0" parent="1">
          <mxGeometry x="579.9999999999995" y="805" width="115.00000000000045" height="107" as="geometry" />
        </mxCell>
        <mxCell id="dzwL4iLsprpZWcppXyu_-10" value="CommunigatePro&lt;br&gt;govrb.ru&lt;br&gt;" style="fontColor=#0066CC;verticalAlign=top;verticalLabelPosition=bottom;labelPosition=center;align=center;html=1;outlineConnect=0;fillColor=#CCCCCC;strokeColor=#6881B3;gradientColor=none;gradientDirection=north;strokeWidth=2;shape=mxgraph.networks.mail_server;" vertex="1" parent="dzwL4iLsprpZWcppXyu_-55">
          <mxGeometry x="10.000000000000455" y="2" width="105" height="105" as="geometry" />
        </mxCell>
        <mxCell id="dzwL4iLsprpZWcppXyu_-48" value="5" style="ellipse;whiteSpace=wrap;html=1;aspect=fixed;fillColor=#4D9900;strokeColor=none;labelBackgroundColor=none;" vertex="1" parent="dzwL4iLsprpZWcppXyu_-55">
          <mxGeometry width="23" height="23" as="geometry" />
        </mxCell>
      </root>
    </mxGraphModel>
  </diagram>
</mxfile>
